<?xml version="1.0" encoding="UTF-8" standalone="no"?>
<!-- Created with Inkscape (http://www.inkscape.org/) -->
<svg
   xmlns:dc="http://purl.org/dc/elements/1.1/"
   xmlns:cc="http://web.resource.org/cc/"
   xmlns:rdf="http://www.w3.org/1999/02/22-rdf-syntax-ns#"
   xmlns:svg="http://www.w3.org/2000/svg"
   xmlns="http://www.w3.org/2000/svg"
   xmlns:sodipodi="http://inkscape.sourceforge.net/DTD/sodipodi-0.dtd"
   xmlns:inkscape="http://www.inkscape.org/namespaces/inkscape"
   width="744.09448819"
   height="1052.3622047"
   id="svg2"
   sodipodi:version="0.32"
   inkscape:version="0.43"
   sodipodi:docbase="C:\Documents and Settings\Noel O'Boyle\Desktop"
   sodipodi:docname="logo_for_ccl.svg"
   inkscape:export-filename="C:\Documents and Settings\Noel O'Boyle\Desktop\logo_for_ccl_b.png"
   inkscape:export-xdpi="22.764"
   inkscape:export-ydpi="22.764">
  <defs
     id="defs4" />
  <sodipodi:namedview
     id="base"
     pagecolor="#ffffff"
     bordercolor="#666666"
     borderopacity="1.0"
     inkscape:pageopacity="0.0"
     inkscape:pageshadow="2"
     inkscape:zoom="1.4142136"
     inkscape:cx="394.66962"
     inkscape:cy="669.49994"
     inkscape:document-units="px"
     inkscape:current-layer="layer5"
     inkscape:window-width="1024"
     inkscape:window-height="712"
     inkscape:window-x="-4"
     inkscape:window-y="-4" />
  <metadata
     id="metadata7">
    <rdf:RDF>
      <cc:Work
         rdf:about="">
        <dc:format>image/svg+xml</dc:format>
        <dc:type
           rdf:resource="http://purl.org/dc/dcmitype/StillImage" />
      </cc:Work>
    </rdf:RDF>
  </metadata>
  <g
     inkscape:label="Layer 1"
     inkscape:groupmode="layer"
     id="layer1"
     style="display:none">
    <path
       style="fill:#000000;fill-opacity:1;fill-rule:nonzero;stroke:none;stroke-width:1px;stroke-linecap:butt;stroke-linejoin:miter;stroke-opacity:1"
       id="path2535"
       d="M 387.03832,394.2718 C 373.16742,395.79436 361.73438,413.21816 355.89173,424.95446 C 352.11499,433.26184 355.22258,440.39092 360.24,447.3257 L 357.08597,449.59333 C 351.24619,441.42487 347.60112,432.79417 352.36205,423.14757 C 359.20032,410.12104 371.80543,392.00025 387.03832,389.68975 L 387.03832,394.2718 z " />
    <path
       style="fill:#000000;fill-opacity:1;fill-rule:nonzero;stroke:none;stroke-width:1px;stroke-linecap:butt;stroke-linejoin:miter;stroke-opacity:1"
       id="path2537"
       d="M 318.48995,396.20274 C 307.25113,404.16221 297.65254,415.88946 290.86541,428.04558 C 287.83208,433.60836 286.70276,436.61928 291.87123,440.27337 L 289.67625,443.85441 C 282.05629,439.12239 283.17894,433.12572 287.40258,426.06865 C 294.9163,413.17292 305.47835,398.82278 318.48995,391.62069 L 318.48995,396.20274 z " />
    <path
       style="fill:#000000;fill-opacity:1;fill-rule:nonzero;stroke:none;stroke-width:1px;stroke-linecap:butt;stroke-linejoin:miter;stroke-opacity:1"
       id="path2539"
       d="M 265.38911,387.51351 C 254.56216,388.99327 245.16038,398.92833 240.64466,408.49536 C 237.40864,416.1638 239.23789,423.81566 242.09638,431.21641 L 238.30455,432.86822 C 234.69184,424.47424 233.2076,415.38246 236.99054,406.74652 C 242.34456,395.69468 253.08496,385.14909 265.38911,382.93146 L 265.38911,387.51351 z " />
    <path
       style="fill:#000000;fill-opacity:1;fill-rule:nonzero;stroke:none;stroke-width:1px;stroke-linecap:butt;stroke-linejoin:miter;stroke-opacity:1"
       id="path2541"
       d="M 238.83115,454.85143 C 236.67652,469.63555 219.04719,494.30056 207.93505,472.84459 C 200.52302,462.59748 206.02872,439.04969 192.39681,434.40753 C 182.42215,434.17709 173.064,437.17242 165.95261,444.16872 L 162.83715,441.26522 C 171.11288,433.44049 181.70434,429.91009 193.11191,430.13781 C 209.58117,434.89879 203.84953,458.75293 211.25657,471.08929 C 220.2979,487.79552 232.64858,466.09536 234.2491,454.85143 L 238.83115,454.85143 z " />
    <path
       style="fill:#000000;fill-opacity:1;fill-rule:nonzero;stroke:none;stroke-width:1px;stroke-linecap:butt;stroke-linejoin:miter;stroke-opacity:1"
       id="path2543"
       d="M 161.34858,480.44392 C 185.25783,486.76549 211.41464,490.0328 224.76201,512.47843 C 239.15833,523.89723 261.17386,489.32627 265.42452,477.70497 C 267.45132,471.67965 267.93065,465.73264 266.70154,459.61778 L 270.84845,458.52539 C 271.68857,465.49106 271.22628,472.20011 268.76823,478.94024 C 263.78288,492.30996 237.40364,532.48876 221.25679,514.51603 C 209.28952,493.4332 183.96946,488.75846 161.34858,485.02597 L 161.34858,480.44392 z " />
    <path
       style="fill:#000000;fill-opacity:1;fill-rule:nonzero;stroke:none;stroke-width:1px;stroke-linecap:butt;stroke-linejoin:miter;stroke-opacity:1"
       id="path2545"
       d="M 426.85687,394.71343 C 450.38078,427.6209 475.03065,467.98769 459.7439,509.63367 C 452.72807,520.26219 442.8294,521.03618 443.49524,535.17126 L 439.41417,535.35885 C 438.73001,520.13252 447.76448,518.22376 456.43972,508.32898 C 473.2172,468.89822 448.09031,427.77766 423.67753,397.89278 L 426.85687,394.71343 z " />
    <path
       style="fill:#000000;fill-opacity:1;fill-rule:nonzero;stroke:none;stroke-width:1px;stroke-linecap:butt;stroke-linejoin:miter;stroke-opacity:1"
       id="path2547"
       d="M 423.4812,533.78974 C 417.71807,520.96686 414.02508,497.92628 421.70821,482.62641 C 430.56253,467.69041 423.63408,453.86231 414.5835,441.1076 L 417.8668,438.82128 C 427.50516,452.9162 434.89663,468.05866 425.32502,484.46315 C 417.50257,499.6741 421.41374,518.82122 428.06325,533.78974 L 423.4812,533.78974 z " />
    <path
       style="fill:#000000;fill-opacity:1;fill-rule:nonzero;stroke:none;stroke-width:1px;stroke-linecap:butt;stroke-linejoin:miter;stroke-opacity:1"
       id="path2549"
       d="M 171.42489,447.7795 C 166.90442,453.10734 167.0836,458.52686 170.34828,464.36101 C 176.79308,467.96735 180.87324,461.90906 180.38459,455.81335 C 179.56625,449.54759 177.07227,448.46776 171.88435,445.75803 C 169.6382,444.63158 167.41417,443.46338 165.17332,442.32768 L 167.11486,438.43317 C 169.34276,439.62685 171.54627,440.87244 173.83369,441.95006 C 180.22292,445.06051 183.99453,447.58836 184.68903,455.32903 C 185.42217,465.60865 175.99842,474.77498 166.71635,466.68096 C 162.52298,458.78731 162.50276,451.81206 168.19029,444.5449 L 171.42489,447.7795 z " />
    <path
       style="fill:#000000;fill-opacity:1;fill-rule:nonzero;stroke:none;stroke-width:1px;stroke-linecap:butt;stroke-linejoin:miter;stroke-opacity:1"
       id="path2551"
       d="M 171.96875,455.34171 C 171.94565,455.49217 171.98419,455.43448 171.8941,454.89305 L 175.74824,457.15985 C 174.53568,458.4129 174.10764,459.98942 171.96875,459.92375 L 171.96875,455.34171 z " />
    <path
       style="fill:#000000;fill-opacity:1;fill-rule:nonzero;stroke:none;stroke-width:1px;stroke-linecap:butt;stroke-linejoin:miter;stroke-opacity:1"
       id="path2553"
       d="M 158.22195,476.33674 C 148.35345,474.44399 139.01768,470.44258 129.12545,468.65685 C 128.64082,468.62905 128.1562,468.60124 127.67157,468.57344 L 128.03521,464.24775 C 128.62812,464.31053 129.22103,464.37331 129.81394,464.43608 C 139.35567,466.50271 148.63296,470.24636 158.22195,471.75469 L 158.22195,476.33674 z " />
    <path
       style="fill:#000000;fill-opacity:1;fill-rule:nonzero;stroke:none;stroke-width:1px;stroke-linecap:butt;stroke-linejoin:miter;stroke-opacity:1"
       id="path2555"
       d="M 130.45355,475.61657 C 126.42708,475.15185 132.66742,470.59246 135.03317,468.97445 L 137.22442,472.80161 C 133.85976,475.03106 133.42388,478.02335 130.45355,480.19862 L 130.45355,475.61657 z " />
    <path
       style="fill:#000000;fill-opacity:1;fill-rule:nonzero;stroke:none;stroke-width:1px;stroke-linecap:butt;stroke-linejoin:miter;stroke-opacity:1"
       id="path2557"
       d="M 268.51574,379.06958 C 273.53771,379.87624 277.375,378.29553 281.85681,376.35675 C 288.1095,373.02235 295.05442,372.60615 301.97007,372.26342 C 304.5665,372.32525 307.16319,372.37301 309.76006,372.41475 L 309.72347,376.80832 C 307.14864,376.78801 304.57401,376.76053 301.99932,376.72781 C 295.68647,376.94877 289.37101,377.15351 283.69367,380.30478 C 278.71795,382.58035 274.09292,384.20085 268.51574,383.65163 L 268.51574,379.06958 z " />
  </g>
  <g
     inkscape:groupmode="layer"
     id="layer3"
     inkscape:label="Avril"
     style="display:none"
     sodipodi:insensitive="true">
    <path
       style="opacity:0.23888891;fill:#000000;fill-opacity:1;fill-rule:nonzero;stroke:none;stroke-width:1px;stroke-linecap:butt;stroke-linejoin:miter;stroke-opacity:1"
       d="M 243.03529,385.36411 C 230.6515,385.44334 217.89986,383.74773 205.93403,387.89242 C 194.68236,391.28539 184.30045,396.89231 173.63673,401.72284 C 171.22622,404.87365 163.00318,407.11699 164.50029,400.59326 C 173.32056,395.80768 182.44228,391.5464 191.60473,387.43902 C 203.7096,382.08811 216.81284,378.26148 230.17346,379.06799 C 234.24231,380.06195 238.52408,377.69224 242.27051,379.61946 C 244.24357,381.10168 243.00727,383.41847 243.03529,385.36411 z "
       id="path2576" />
    <path
       style="opacity:0.23888891;fill:#000000;fill-opacity:1;fill-rule:nonzero;stroke:none;stroke-width:1px;stroke-linecap:butt;stroke-linejoin:miter;stroke-opacity:1"
       d="M 238.23578,407.23846 C 228.71177,406.35855 219.07841,408.03456 210.30216,411.799 C 194.58918,417.74193 179.86679,426.16626 163.85908,431.31686 C 161.06504,433.03369 161.3287,430.12415 160.8911,428.28135 C 160.29852,425.52861 166.11591,427.0354 167.70439,425.17665 C 185.16714,419.14116 201.05363,409.17217 218.81411,403.94975 C 225.14844,402.34933 231.7243,401.95268 238.23578,402.14151 C 238.23578,403.84049 238.23578,405.53948 238.23578,407.23846 z "
       id="path2584" />
    <path
       style="opacity:0.23888891;fill:#000000;fill-opacity:1;fill-rule:nonzero;stroke:none;stroke-width:1px;stroke-linecap:butt;stroke-linejoin:miter;stroke-opacity:1"
       id="path2586"
       d="M 235.68977,402.24086 C 240.00155,402.36963 244.31728,402.31976 248.63062,402.30933 L 248.63062,406.75444 C 244.31728,406.74401 240.00155,406.69414 235.68977,406.82291 L 235.68977,402.24086 z " />
    <path
       style="opacity:0.23888891;fill:#000000;fill-opacity:1;fill-rule:nonzero;stroke:none;stroke-width:1px;stroke-linecap:butt;stroke-linejoin:miter;stroke-opacity:1"
       d="M 227.27541,378.8714 C 237.9107,378.37573 248.42912,380.57574 258.94235,381.79673 C 269.51975,384.11743 279.30034,389.28628 288.26257,395.22735 C 292.93649,398.8187 297.66951,402.95855 300.27879,408.2867 C 295.93141,409.59881 290.01518,409.89046 288.38492,404.41958 C 281.75138,396.34358 272.10972,391.64175 262.7497,387.49561 C 255.75643,384.46411 248.06565,384.77496 240.7082,383.41727 C 236.26421,382.80935 231.75566,382.4261 227.2754,382.83932 C 227.27539,381.51668 227.2754,380.19403 227.27541,378.8714 z "
       id="path2600" />
    <path
       style="opacity:0.23888891;fill:#000000;fill-opacity:1;fill-rule:nonzero;stroke:none;stroke-width:1px;stroke-linecap:butt;stroke-linejoin:miter;stroke-opacity:1"
       d="M 303.79388,424.4039 C 303.66185,430.22763 303.70337,436.05323 303.71296,441.87791 C 302.07288,441.87791 300.4328,441.8779 298.79272,441.8779 C 298.80232,436.05323 298.84386,430.22763 298.71182,424.40391 C 300.40584,424.40391 302.09986,424.4039 303.79388,424.4039 z "
       id="path2602" />
    <path
       style="opacity:0.23888891;fill:#000000;fill-opacity:1;fill-rule:nonzero;stroke:none;stroke-width:1px;stroke-linecap:butt;stroke-linejoin:miter;stroke-opacity:1"
       id="path2608"
       d="M 281.23304,459.85469 C 276.59135,459.729 271.94563,459.7582 267.30242,459.77606 C 266.31059,459.78201 265.31875,459.78393 264.32692,459.78787 L 264.32692,455.33946 C 265.31875,455.3434 266.31059,455.34533 267.30242,455.35128 C 271.94563,455.36914 276.59135,455.39834 281.23304,455.27265 L 281.23304,459.85469 z " />
    <path
       style="opacity:0.23888891;fill:#000000;fill-opacity:1;fill-rule:nonzero;stroke:none;stroke-width:1px;stroke-linecap:butt;stroke-linejoin:miter;stroke-opacity:1"
       id="path2612"
       d="M 266.35458,438.68341 C 265.44856,438.76701 264.59368,438.40403 263.72219,438.26576 L 264.87071,433.92764 C 265.37054,433.98616 265.82735,434.28342 266.35458,434.10137 L 266.35458,438.68341 z " />
    <path
       style="opacity:0.23888891;fill:#000000;fill-opacity:1;fill-rule:nonzero;stroke:none;stroke-width:1px;stroke-linecap:butt;stroke-linejoin:miter;stroke-opacity:1"
       id="path2614"
       d="M 275.09977,435.787 C 274.40018,438.22916 264.3669,440.8717 258.5994,435.85107 C 256.4568,428.30306 264.64585,425.91747 273.59468,424.48278 C 280.96233,423.79935 288.28237,423.40141 295.71457,423.48728 C 305.55577,423.69501 315.40091,423.72126 325.24565,423.67123 L 325.25593,427.8807 C 315.34379,427.85327 305.43265,428.03423 295.52306,427.93725 C 288.52365,427.83837 281.63599,428.17274 274.70008,428.848 C 269.40105,429.78726 265.16247,429.87961 264.57538,434.09695 C 267.91708,434.15339 271.39615,433.66537 275.09977,431.20496 L 275.09977,435.787 z " />
    <path
       style="opacity:0.23888891;fill:#000000;fill-opacity:1;fill-rule:nonzero;stroke:none;stroke-width:1px;stroke-linecap:butt;stroke-linejoin:miter;stroke-opacity:1"
       d="M 251.87253,457.02734 C 246.97186,457.03708 244.38608,452.41701 241.61053,449.19133 C 238.33221,445.82158 237.90262,440.94799 237.20261,436.56315 C 236.00833,431.50628 235.6671,426.11084 236.70157,421.02066 C 239.00676,416.30544 244.64425,415.16379 249.17854,413.64438 C 256.43014,411.53944 263.84104,409.30316 271.48811,409.89316 C 278.70076,410.08806 286.10231,410.21988 292.99366,407.75688 C 300.71338,405.47363 308.43827,402.75762 316.54835,402.34884 C 316.78597,404.53433 318.30955,407.70045 314.82342,406.87893 C 305.06243,407.59537 295.98758,411.60373 286.56462,413.83116 C 279.04107,414.75087 271.42647,413.88385 263.90289,414.50292 C 256.48789,416.0405 249.01131,417.80562 242.1468,421.06624 C 239.5434,423.45431 240.8297,427.41037 240.6724,430.53489 C 241.1542,434.6358 242.15453,438.66699 242.87304,442.72153 C 244.93138,446.14773 247.15326,450.2436 250.7565,452.1167 C 252.94494,452.83018 251.46798,455.41199 251.87253,457.02734 z "
       id="path2616" />
    <path
       style="opacity:0.23888891;fill:#000000;fill-opacity:1;fill-rule:nonzero;stroke:none;stroke-width:1px;stroke-linecap:butt;stroke-linejoin:miter;stroke-opacity:1"
       d="M 314.97849,401.97708 C 321.20691,402.22637 326.52635,398.4816 332.10493,396.30126 C 336.76197,394.24251 341.4059,392.14754 346.14964,390.29343 C 349.54098,389.94655 353.12265,388.75785 355.06687,385.75707 C 356.96503,384.43358 356.37653,381.24734 357.39864,380.11072 C 359.15476,380.20153 360.91088,380.29234 362.66699,380.38315 C 362.41951,382.8552 362.25544,385.47212 360.69803,387.53475 C 358.42011,391.62375 354.18263,394.3383 349.58332,394.99141 C 346.51117,395.55192 343.75611,397.23626 340.84415,398.33009 C 335.19304,400.7192 329.62997,403.31488 323.96537,405.66866 C 321.1027,406.76649 318.06251,407.52544 314.97847,407.46056 C 314.97848,405.63273 314.97848,403.80491 314.97849,401.97708 z "
       id="path2626" />
    <path
       style="opacity:0.23888891;fill:#000000;fill-opacity:1;fill-rule:nonzero;stroke:none;stroke-width:1px;stroke-linecap:butt;stroke-linejoin:miter;stroke-opacity:1"
       d="M 374.45526,399.12717 C 378.11649,396.24019 378.11857,390.99566 379.90611,387.00586 C 382.98584,379.40365 382.1778,371.07573 381.93671,363.08296 C 382.02479,357.74708 378.9568,353.15797 375.34281,349.50939 C 374.17965,346.65668 368.84778,346.62 368.59188,344.36529 C 369.03631,342.93982 369.48074,341.51434 369.92517,340.08887 C 377.49697,342.16899 382.65027,348.86142 385.92017,355.63522 C 388.15431,361.46233 387.01505,367.82723 387.45209,373.90735 C 387.5995,380.20835 385.9316,386.33504 383.68159,392.1614 C 382.19921,396.90417 380.70614,403.23618 375.10163,404.53069 C 373.76019,404.57292 374.76684,401.79285 374.45526,400.59724 C 374.45526,400.10722 374.45526,399.61719 374.45526,399.12717 z "
       id="path2628" />
    <path
       style="opacity:0.23888891;fill:#000000;fill-opacity:1;fill-rule:nonzero;stroke:none;stroke-width:1px;stroke-linecap:butt;stroke-linejoin:miter;stroke-opacity:1"
       d="M 310.72287,343.56735 C 304.15011,345.67736 293.35823,337.02876 302.89697,332.71188 C 314.86769,328.51834 327.75911,327.61645 340.34521,326.67996 C 359.07644,325.59673 377.84305,326.31019 396.5908,326.15118 C 399.09749,333.9352 386.61951,328.68678 382.38831,330.05916 C 357.58112,330.04773 332.39939,329.80109 308.1099,335.487 C 298.91105,339.59958 314.72056,337.08948 310.72287,343.56735 z "
       id="path2630" />
    <path
       style="opacity:0.23888891;fill:#000000;fill-opacity:1;fill-rule:nonzero;stroke:none;stroke-width:1px;stroke-linecap:butt;stroke-linejoin:miter;stroke-opacity:1"
       d="M 296.04889,302.70178 C 312.61589,304.04273 328.33224,295.20461 344.96787,297.84512 C 357.86631,298.30611 370.80001,298.63251 383.61115,300.32225 C 382.94354,309.46009 370.5187,302.23595 364.67966,303.63361 C 352.64858,303.4726 340.55686,302.33619 328.5582,303.15001 C 317.69393,304.66168 307.17623,309.13064 296.0489,308.32533 C 296.04893,306.45081 296.04889,304.57629 296.04889,302.70178 z "
       id="path2640" />
    <path
       style="opacity:0.23888891;fill:#000000;fill-opacity:1;fill-rule:nonzero;stroke:none;stroke-width:1px;stroke-linecap:butt;stroke-linejoin:miter;stroke-opacity:1"
       d="M 291.5741,312.06934 C 288.27386,315.68464 283.35766,317.92935 281.30146,322.58958 C 280.44685,324.9033 280.03975,327.33828 279.62784,329.76787 C 279.65554,331.32798 278.26758,333.68651 276.92994,331.56625 C 275.16064,330.54387 274.92515,328.25732 275.53704,326.48593 C 276.17549,324.81587 276.42368,323.07595 276.77028,321.33354 C 277.96778,316.51653 281.1196,312.37888 284.96988,309.336 C 285.81241,307.94337 287.90056,306.11383 289.33232,307.89235 C 290.35331,309.12703 290.67582,310.74937 291.5741,312.06934 z "
       id="path2642" />
    <path
       style="opacity:0.23888891;fill:#000000;fill-opacity:1;fill-rule:nonzero;stroke:none;stroke-width:1px;stroke-linecap:butt;stroke-linejoin:miter;stroke-opacity:1"
       d="M 275.7395,352.03644 C 282.29358,354.05647 288.42673,358.00076 295.48234,357.96656 C 295.74986,361.00859 293.81602,364.05637 290.56371,362.04034 C 285.62925,361.25618 280.64385,360.02228 276.36348,357.34871 C 275.08224,355.8531 276.03023,353.77989 275.7395,352.03644 z "
       id="path2646" />
    <path
       style="opacity:0.23888891;fill:#000000;fill-opacity:1;fill-rule:nonzero;stroke:none;stroke-width:1px;stroke-linecap:butt;stroke-linejoin:miter;stroke-opacity:1"
       d="M 285.67728,361.72891 C 292.24645,357.02634 300.69438,358.60727 308.23447,358.58073 C 312.67696,357.10925 311.12963,365.60449 306.99955,363.08916 C 302.75696,363.19599 298.34326,364.07515 294.23878,362.57185 C 292.18306,360.70629 288.73287,362.24168 286.05974,361.72891 L 285.67728,361.72891 L 285.67728,361.72891 z "
       id="path2648" />
    <path
       style="opacity:0.23888891;fill:#000000;fill-opacity:1;fill-rule:nonzero;stroke:none;stroke-width:1px;stroke-linecap:butt;stroke-linejoin:miter;stroke-opacity:1"
       d="M 372.51025,325.96875 C 377.73352,327.73797 390.13843,322.26644 390.38291,329.75274 C 385.03646,330.44406 376.99375,331.79389 372.39806,329.15706 C 372.14968,328.08121 372.82053,327.05666 372.51025,325.96875 z "
       id="path2650" />
    <path
       style="opacity:0.23888891;fill:#000000;fill-opacity:1;fill-rule:nonzero;stroke:none;stroke-width:1px;stroke-linecap:butt;stroke-linejoin:miter;stroke-opacity:1"
       d="M 396.95776,326.36514 C 404.32809,324.88277 410.89617,329.59869 417.85902,330.14828 C 424.48062,328.65642 431.10944,329.62802 437.76207,329.11992 C 443.73173,332.67349 435.20688,335.72735 431.48469,333.54543 C 424.89666,332.60993 417.89575,336.40046 411.59334,333.50205 C 407.41994,330.44132 399.71832,331.56283 396.95777,329.80169 C 396.95777,328.65617 396.95776,327.51065 396.95776,326.36514 z "
       id="path2652" />
    <path
       style="opacity:0.23888891;fill:#000000;fill-opacity:1;fill-rule:nonzero;stroke:none;stroke-width:1px;stroke-linecap:butt;stroke-linejoin:miter;stroke-opacity:1"
       d="M 382.37213,300.40106 C 391.08247,302.48598 399.94082,304.25617 408.8176,305.35915 C 418.53426,304.94982 428.25744,305.03029 437.98506,305.05477 C 439.91456,311.87598 431.59624,308.47041 427.46643,309.2503 C 417.42434,308.88231 407.21154,310.76216 397.4149,307.6717 C 392.94953,305.33784 381.4965,308.43553 382.37213,301.401 C 382.37213,301.06768 382.37213,300.73437 382.37213,300.40106 z "
       id="path2654" />
    <path
       style="opacity:0.23888891;fill:#000000;fill-opacity:1;fill-rule:nonzero;stroke:none;stroke-width:1px;stroke-linecap:butt;stroke-linejoin:miter;stroke-opacity:1"
       d="M 438.80032,329.65796 C 448.37106,329.50852 457.91199,330.02758 467.437,330.77118 C 480.63751,330.53009 493.83965,330.83435 507.04196,330.70493 C 508.42591,339.24444 495.45557,333.3969 490.00814,335.10406 C 477.33032,335.06689 464.63254,335.68294 452.01967,334.09916 C 447.69049,332.70503 436.73872,337.91317 438.80032,329.65796 z "
       id="path2656" />
    <path
       style="opacity:0.23888891;fill:#000000;fill-opacity:1;fill-rule:nonzero;stroke:none;stroke-width:1px;stroke-linecap:butt;stroke-linejoin:miter;stroke-opacity:1"
       d="M 436.86938,304.76294 C 450.18271,304.70244 463.44245,306.67943 476.7661,305.86854 C 484.75081,303.5346 498.13751,310.68432 502.15941,302.06929 C 498.64187,300.1075 497.26116,293.43381 503.33598,296.3597 C 512.71275,302.3125 503.63862,313.94555 494.46327,310.34875 C 477.79009,309.73333 460.99987,311.13292 444.41434,309.11871 C 440.67648,309.5863 435.16996,310.61692 436.86938,304.76294 z "
       id="path2658" />
    <path
       style="opacity:0.23888891;fill:#000000;fill-opacity:1;fill-rule:nonzero;stroke:none;stroke-width:1px;stroke-linecap:butt;stroke-linejoin:miter;stroke-opacity:1"
       d="M 505.79758,329.55017 C 511.80193,330.12483 516.73174,325.78615 520.9892,322.1528 C 524.47804,318.44288 527.86588,313.86151 527.33417,308.47696 C 527.27625,304.37039 526.91143,300.27082 526.97223,296.17002 C 526.22248,291.61829 523.4759,287.63185 520.65777,284.08667 C 517.48177,280.5851 513.27127,278.31765 509.21879,276.00626 C 509.75655,274.47201 510.2943,272.93776 510.83206,271.4035 C 517.45339,274.85824 523.99473,279.33553 527.42826,286.20581 C 530.20012,290.39777 531.47182,295.44478 530.98504,300.44438 C 531.20438,306.93742 532.39427,314.17041 528.361,319.82664 C 524.54142,326.38509 518.15685,331.22354 511.19756,334.0448 C 509.42154,334.41352 504.99299,336.30081 505.79758,333.04228 C 505.79758,331.87824 505.79758,330.71421 505.79758,329.55017 z "
       id="path2662" />
    <path
       style="opacity:0.23888891;fill:#000000;fill-opacity:1;fill-rule:nonzero;stroke:none;stroke-width:1px;stroke-linecap:butt;stroke-linejoin:miter;stroke-opacity:1"
       d="M 460.41403,275.51901 C 456.16614,274.19359 453.71118,270.09725 451.92437,266.29852 C 450.32588,262.7918 448.98211,259.17398 447.51589,255.61291 C 446.79655,253.47858 446.43512,251.24876 446.03371,249.03906 C 447.48245,248.76313 448.9312,248.4872 450.37994,248.21127 C 450.82856,250.72474 451.09307,253.32695 452.31944,255.61565 C 454.24294,259.9968 455.78087,264.68611 458.85143,268.43504 C 459.34221,269.26007 460.72356,269.48331 460.41403,270.60843 C 460.41403,272.24529 460.41403,273.88215 460.41403,275.51901 z "
       id="path2664" />
    <path
       style="opacity:0.23888891;fill:#000000;fill-opacity:1;fill-rule:nonzero;stroke:none;stroke-width:1px;stroke-linecap:butt;stroke-linejoin:miter;stroke-opacity:1"
       d="M 472.13779,264.93335 C 464.87202,264.70426 458.27185,260.94857 452.797,256.42017 C 450.04309,254.13671 447.41445,251.69373 444.93209,249.12043 C 442.94973,246.91639 442.7012,243.7746 443.22557,240.98106 C 442.95947,239.62426 444.03676,240.1324 444.82758,240.24759 C 446.02335,240.45508 447.21912,240.66256 448.41489,240.87004 C 448.16257,242.64679 447.6367,244.66075 448.87642,246.20767 C 452.94608,250.62526 457.37149,254.92426 462.7818,257.66838 C 465.67426,259.11726 468.8882,260.00106 472.13779,259.95179 C 472.13779,261.61231 472.13779,263.27283 472.13779,264.93335 z "
       id="path2666" />
    <path
       style="opacity:0.23888891;fill:#000000;fill-opacity:1;fill-rule:nonzero;stroke:none;stroke-width:1px;stroke-linecap:butt;stroke-linejoin:miter;stroke-opacity:1"
       id="path2670"
       d="M 119.83338,443.40766 C 125.14341,443.57202 130.45817,443.50507 135.77013,443.48037 C 141.22217,443.8499 145.40531,441.08255 150.06212,438.84009 C 154.812,436.09301 155.31902,431.03005 159.18217,427.55242 C 160.1117,427.02823 161.16285,427.25826 162.15318,427.11119 L 162.33591,431.9006 C 162.01703,431.89832 161.69818,431.89394 161.37928,431.89377 C 159.0525,435.83075 157.42849,440.867 152.33182,443.05229 C 147.03077,445.69507 142.03728,448.70189 135.77013,448.2654 C 130.45817,448.2407 125.14341,448.17375 119.83338,448.33811 L 119.83338,443.40766 z " />
    <path
       style="opacity:0.23888891;fill:#000000;fill-opacity:1;fill-rule:nonzero;stroke:none;stroke-width:1px;stroke-linecap:butt;stroke-linejoin:miter;stroke-opacity:1"
       d="M 112.1041,433.94992 C 111.31609,426.28476 115.34909,419.28119 119.20284,412.98799 C 122.75978,407.42361 129.56659,404.81815 135.97139,404.83376 C 143.57213,404.14171 151.29414,405.51681 158.82694,404.03977 C 161.25679,403.12057 163.05592,400.82013 165.6907,400.42738 C 168.17069,400.79656 169.30367,405.35451 166.05793,405.7243 C 163.51388,406.37051 161.66612,408.33735 159.11068,408.91739 C 153.58411,410.34336 147.83521,409.3731 142.20647,409.62542 C 137.05765,409.66964 131.46936,409.41255 126.87724,412.11106 C 121.62345,415.67565 119.3287,421.92212 117.10574,427.58533 C 116.30737,429.66939 117.76095,432.75318 115.55918,434.09595 C 114.39653,434.37301 113.28458,433.7708 112.1041,433.94992 z "
       id="path2680" />
    <path
       style="opacity:0.23888891;fill:#000000;fill-opacity:1;fill-rule:nonzero;stroke:none;stroke-width:1px;stroke-linecap:butt;stroke-linejoin:miter;stroke-opacity:1"
       id="path2692"
       d="M 120.79885,428.30855 C 121.60925,428.08891 123.49979,426.59824 124.64747,425.81704 L 127.2811,429.31032 C 125.24719,430.75156 123.32463,432.4795 120.79885,432.89059 L 120.79885,428.30855 z " />
    <path
       style="opacity:0.23888891;fill:#000000;fill-opacity:1;fill-rule:nonzero;stroke:none;stroke-width:1px;stroke-linecap:butt;stroke-linejoin:miter;stroke-opacity:1"
       id="path2694"
       d="M 137.81305,425.14582 C 131.5481,425.94398 126.05577,429.69698 121.66639,433.27779 C 121.38324,433.51378 121.1,433.74977 120.81682,433.98577 L 117.84405,431.64668 C 118.08996,431.4565 118.33588,431.26633 118.58179,431.07616 C 123.63614,426.8134 130.52417,422.69815 137.81305,421.68838 L 137.81305,425.14582 z " />
    <path
       style="opacity:0.23888891;fill:#000000;fill-opacity:1;fill-rule:nonzero;stroke:none;stroke-width:1px;stroke-linecap:butt;stroke-linejoin:miter;stroke-opacity:1"
       id="path2696"
       d="M 128.3963,424.04321 C 127.21884,421.19839 126.83282,424.79919 126.53035,425.81695 C 128.21958,427.85273 127.04102,425.58211 124.75429,426.63372 L 129.92098,428.55642 C 123.36013,429.48323 120.73839,429.01175 120.28872,425.15204 C 129.47267,415.6973 135.07857,431.26731 121.74164,424.04321 L 128.3963,424.04321 z " />
    <path
       style="opacity:0.23888891;fill:#000000;fill-opacity:1;fill-rule:nonzero;stroke:none;stroke-width:1px;stroke-linecap:butt;stroke-linejoin:miter;stroke-opacity:1"
       d="M 117.67222,443.51077 C 114.79725,443.34128 113.8108,440.09492 113.13787,437.78983 C 113.20354,435.96557 110.71953,433.15523 112.77544,432.00424 C 113.86807,431.17903 114.9607,430.35383 116.05333,429.52863 C 116.34986,431.29871 116.68497,433.70232 117.67222,434.19471 C 117.67222,437.30006 117.67222,440.40542 117.67222,443.51077 z "
       id="path2704" />
    <path
       style="opacity:0.23888891;fill:#000000;fill-opacity:1;fill-rule:nonzero;stroke:none;stroke-width:1px;stroke-linecap:butt;stroke-linejoin:miter;stroke-opacity:1"
       id="path2722"
       d="M 124.22006,438.13916 C 125.29597,440.9184 122.53676,443.86333 121.48044,447.24096 C 118.42541,451.76371 113.2917,450.59484 108.44641,450.20206 L 108.81516,445.79381 C 111.5788,446.03778 114.55939,446.58934 117.23982,445.82836 C 118.88503,440.87916 123.58802,430.71768 128.80211,438.13916 L 124.22006,438.13916 z " />
    <path
       style="opacity:0.23888891;fill:#000000;fill-opacity:1;fill-rule:nonzero;stroke:none;stroke-width:1px;stroke-linecap:butt;stroke-linejoin:miter;stroke-opacity:1"
       id="path2726"
       d="M 146.86654,408.90103 C 157.5214,408.68526 168.12796,409.27313 178.75539,409.80812 C 186.62947,410.21322 194.46757,410.84034 202.35544,411.03772 L 202.33343,411.8833 C 194.43203,411.68465 186.58359,411.05389 178.69676,410.63565 C 168.0917,410.08681 157.49896,409.52956 146.86654,409.81744 L 146.86654,408.90103 z " />
    <path
       style="opacity:0.23888891;fill:#000000;fill-opacity:1;fill-rule:nonzero;stroke:none;stroke-width:1px;stroke-linecap:butt;stroke-linejoin:miter;stroke-opacity:1"
       id="path2728"
       d="M 173.07234,401.17727 C 179.22498,401.20199 185.37781,401.19377 191.53054,401.19736 C 200.71096,400.43197 209.22107,402.44979 218.03337,404.01811 C 218.70629,404.1041 219.37921,404.19009 220.05212,404.27607 L 219.86305,405.13326 C 219.17445,405.0431 218.48585,404.95294 217.79725,404.86278 C 209.06508,403.30017 200.62701,401.32789 191.53054,402.07359 C 185.37781,402.07718 179.22498,402.06896 173.07234,402.09368 L 173.07234,401.17727 z " />
    <path
       style="opacity:0.23888891;fill:#000000;fill-opacity:1;fill-rule:nonzero;stroke:none;stroke-width:1px;stroke-linecap:butt;stroke-linejoin:miter;stroke-opacity:1"
       id="path2730"
       d="M 222.65661,384.43693 C 230.67927,386.94555 237.64458,394.23119 243.39049,401.98717 C 244.45012,403.26479 244.32371,404.70874 244.59018,406.3353 L 244.04651,406.34784 C 243.83304,404.87172 243.96304,403.63397 243.01453,402.45495 C 237.41075,394.782 230.55047,387.60716 222.65661,385.1972 L 222.65661,384.43693 z " />
    <path
       style="opacity:0.23888891;fill:#000000;fill-opacity:1;fill-rule:nonzero;stroke:none;stroke-width:1px;stroke-linecap:butt;stroke-linejoin:miter;stroke-opacity:1"
       id="path2736"
       d="M 231.39695,381.88524 C 236.2443,381.54968 239.77935,381.57301 243.30196,385.52994 C 245.1525,391.60895 246.2989,397.99625 246.47026,404.43726 L 245.58165,404.42132 C 245.43489,398.18249 244.30433,392.02895 242.57251,386.11641 C 239.15503,382.67425 236.01104,382.49633 231.39695,382.94132 L 231.39695,381.88524 z " />
    <path
       style="opacity:0.23888891;fill:#000000;fill-opacity:1;fill-rule:nonzero;stroke:none;stroke-width:1px;stroke-linecap:butt;stroke-linejoin:miter;stroke-opacity:1"
       id="path2738"
       d="M 261.39396,438.04203 C 261.34456,443.42831 261.34348,448.81941 261.50761,454.19741 C 262.22424,458.41894 264.98884,457.94186 269.00551,458.01668 L 269.02946,458.9944 C 264.4657,458.90665 261.23829,459.10799 260.45197,454.282 C 260.29013,448.87516 260.29363,443.45669 260.28773,438.04203 L 261.39396,438.04203 z " />
    <path
       style="opacity:0.23888891;fill:#000000;fill-opacity:1;fill-rule:nonzero;stroke:none;stroke-width:1px;stroke-linecap:butt;stroke-linejoin:miter;stroke-opacity:1"
       id="path2740"
       d="M 268.91813,436.5075 C 268.87772,441.94358 268.23031,448.08426 270.23092,452.58294 C 274.0355,453.35012 277.18666,455.57514 280.60583,457.21632 L 280.33131,457.94151 C 276.91099,456.30102 273.7633,454.07797 269.95645,453.32264 C 266.80258,448.80192 268.41816,442.25875 268.09892,436.5075 L 268.91813,436.5075 z " />
    <path
       style="opacity:0.23888891;fill:#000000;fill-opacity:1;fill-rule:nonzero;stroke:none;stroke-width:1px;stroke-linecap:butt;stroke-linejoin:miter;stroke-opacity:1"
       id="path2742"
       d="M 277.59712,426.69164 C 278.85156,417.74099 285.25074,413.78759 291.94697,409.98289 C 295.25047,408.25779 298.75168,407.16487 302.24746,406.05441 L 302.47547,406.99455 C 299.03167,408.06703 295.58183,409.11917 292.33442,410.82511 C 285.96247,414.45257 279.70977,418.13915 278.51353,426.69164 L 277.59712,426.69164 z " />
    <path
       style="opacity:0.23888891;fill:#000000;fill-opacity:1;fill-rule:nonzero;stroke:none;stroke-width:1px;stroke-linecap:butt;stroke-linejoin:miter;stroke-opacity:1"
       d="M 293.04465,424.69165 C 294.57527,416.86159 300.33605,410.28057 307.17037,406.49045 C 308.76679,405.45142 313.53311,406.88876 309.5738,407.08525 C 305.34341,407.17045 302.3889,411.00627 299.54498,413.69767 C 296.65119,416.72953 294.86255,420.95579 293.76869,424.69164 C 293.52734,424.69164 293.28599,424.69165 293.04465,424.69165 z "
       id="path2744" />
    <path
       style="opacity:0.23888891;fill:#000000;fill-opacity:1;fill-rule:nonzero;stroke:none;stroke-width:1px;stroke-linecap:butt;stroke-linejoin:miter;stroke-opacity:1"
       id="path2748"
       d="M 336.09863,421.45214 C 342.15264,419.24672 346.72562,412.39016 348.40022,406.22539 C 347.74402,401.26055 347.71737,398.07279 342.8774,396.42783 L 343.07729,395.56446 C 348.5005,397.15259 348.60344,401.05831 349.27771,406.2972 C 347.42028,412.90526 342.68137,420.08427 336.09863,422.36855 L 336.09863,421.45214 z " />
    <path
       style="opacity:0.23888891;fill:#000000;fill-opacity:1;fill-rule:nonzero;stroke:none;stroke-width:1px;stroke-linecap:butt;stroke-linejoin:miter;stroke-opacity:1"
       d="M 305.93884,333.55499 C 299.2602,334.50533 293.48126,329.51 291.33412,323.51473 C 289.47408,319.18665 286.98524,313.02999 291.46548,309.43161 C 294.05317,306.87563 295.75196,308.0764 292.12675,309.90656 C 287.57535,313.7138 290.72304,320.0059 292.59701,324.40475 C 294.71771,329.67224 300.0981,333.66195 305.93884,332.79873 C 305.93884,333.05082 305.93884,333.30291 305.93884,333.55499 z "
       id="path2750" />
    <path
       style="opacity:0.23888891;fill:#000000;fill-opacity:1;fill-rule:nonzero;stroke:none;stroke-width:1px;stroke-linecap:butt;stroke-linejoin:miter;stroke-opacity:1"
       d="M 315.59354,329.68344 C 307.80972,323.3724 305.44441,312.97234 303.52481,303.61717 C 305.53129,300.09107 304.37529,308.83926 305.97163,310.72549 C 307.77951,317.31291 310.37505,324.10946 315.59354,328.76703 C 315.59354,329.0725 315.59354,329.37797 315.59354,329.68344 z "
       id="path2752" />
    <path
       style="opacity:0.23888891;fill:#000000;fill-opacity:1;fill-rule:nonzero;stroke:none;stroke-width:1px;stroke-linecap:butt;stroke-linejoin:miter;stroke-opacity:1"
       d="M 360.09302,327.78278 C 361.20652,318.11071 371.51739,312.89978 380.36301,312.57504 C 389.77295,311.74343 398.47802,307.81729 407.39845,305.02612 C 399.63569,310.03565 390.2793,311.78625 381.32911,313.38544 C 373.08043,313.87023 363.01907,317.66729 361.25064,326.74987 C 361.94106,327.53178 360.69058,328.22621 360.09302,327.78278 z "
       id="path2754" />
    <path
       style="opacity:0.23888891;fill:#000000;fill-opacity:1;fill-rule:nonzero;stroke:none;stroke-width:1px;stroke-linecap:butt;stroke-linejoin:miter;stroke-opacity:1"
       d="M 350.97284,327.78278 C 350.77839,319.54698 357.35717,312.29986 365.32627,310.88368 C 371.79174,309.03594 377.97813,305.67151 384.7847,305.3933 C 386.29227,303.33233 389.97615,303.02573 386.71963,305.44246 C 383.17607,307.60395 378.38782,306.91073 374.55968,308.90236 C 369.73521,310.98774 364.41901,311.8232 359.80962,314.32752 C 354.24073,316.54889 352.53779,323.60248 351.30838,327.78277 L 350.99199,327.78278 L 350.97284,327.78278 z "
       id="path2758" />
    <path
       style="opacity:0.23888891;fill:#000000;fill-opacity:1;fill-rule:nonzero;stroke:none;stroke-width:1px;stroke-linecap:butt;stroke-linejoin:miter;stroke-opacity:1"
       id="path2760"
       d="M 455.42049,331.70011 C 461.16008,330.60713 464.94283,325.46086 466.93441,319.47103 C 467.55526,316.50916 467.12581,313.56562 466.76008,310.61848 L 467.29936,310.56505 C 467.67137,313.58919 468.08078,316.60962 467.4231,319.64219 C 465.35667,325.76544 461.39033,331.33605 455.42049,332.33814 L 455.42049,331.70011 z " />
    <path
       style="opacity:0.23888891;fill:#000000;fill-opacity:1;fill-rule:nonzero;stroke:none;stroke-width:1px;stroke-linecap:butt;stroke-linejoin:miter;stroke-opacity:1"
       id="path2762"
       d="M 442.30032,332.55985 C 448.57947,333.32053 450.11416,329.78518 451.79385,324.37286 C 452.58951,319.15956 452.51346,313.89613 452.42496,308.64259 L 453.30116,308.62481 C 453.38623,313.94482 453.46271,319.27551 452.64881,324.55373 C 451.11169,330.40076 448.82086,334.17959 442.30032,333.47626 L 442.30032,332.55985 z " />
    <path
       style="opacity:0.23888891;fill:#000000;fill-opacity:1;fill-rule:nonzero;stroke:none;stroke-width:1px;stroke-linecap:butt;stroke-linejoin:miter;stroke-opacity:1"
       d="M 527.2041,309.30173 C 520.36231,309.70383 507.9118,309.76458 505.36689,303.83206 C 511.25321,308.01027 521.75422,307.00503 527.2041,308.39431 L 527.2041,308.87216 L 527.2041,309.30173 z "
       id="path2764" />
    <path
       style="opacity:0.23888891;fill:#000000;fill-opacity:1;fill-rule:nonzero;stroke:none;stroke-width:1px;stroke-linecap:butt;stroke-linejoin:miter;stroke-opacity:1"
       d="M 517.46313,327.28278 C 513.25001,320.39021 508.25065,314.02291 503.90245,307.21906 C 506.29259,306.45905 507.4312,312.26959 509.48849,313.76474 C 512.60103,318.19217 515.79921,322.57582 518.4846,327.28277 C 518.14411,327.28277 517.80362,327.28277 517.46313,327.28278 z "
       id="path2766" />
    <path
       style="opacity:0.23888891;fill:#000000;fill-opacity:1;fill-rule:nonzero;stroke:none;stroke-width:1px;stroke-linecap:butt;stroke-linejoin:miter;stroke-opacity:1"
       d="M 228.55962,402.61328 C 236.62436,403.0361 245.11286,401.4648 252.7177,404.95356 C 258.05391,407.09687 262.87884,410.46684 268.55961,411.72896 C 268.10581,414.25866 266.59699,414.89363 264.26106,413.57515 C 256.87374,411.15368 250.48455,405.60209 242.39308,405.48308 C 237.94382,405.12246 232.25835,406.0572 228.55961,405.06069 C 228.55961,404.24489 228.55961,403.42909 228.55962,402.61328 z "
       id="path2776" />
    <path
       style="opacity:0.23888891;fill:#000000;fill-opacity:1;fill-rule:nonzero;stroke:none;stroke-width:1px;stroke-linecap:butt;stroke-linejoin:miter;stroke-opacity:1"
       d="M 316.5596,422.54014 C 325.45841,423.12839 334.84729,423.05296 342.90793,418.69062 C 348.1206,416.27093 353.09527,413.37495 358.03651,410.44535 C 358.36409,411.89754 358.69166,413.34972 359.01923,414.80191 C 350.95426,419.04798 343.04048,424.07012 334.09881,426.19876 C 328.33527,427.40074 322.42388,427.51317 316.55961,427.54866 C 316.55961,425.87915 316.5596,424.20965 316.5596,422.54014 z "
       id="path2780" />
    <path
       style="opacity:0.23888891;fill:#000000;fill-opacity:1;fill-rule:nonzero;stroke:none;stroke-width:1px;stroke-linecap:butt;stroke-linejoin:miter;stroke-opacity:1"
       d="M 353.8779,414.71973 C 353.4053,410.61473 357.75748,408.68749 361.06035,407.92925 C 365.98213,406.81532 371.03318,404.93413 374.07043,400.64974 C 375.40367,398.21846 376.7169,396.67685 378.88108,399.01039 C 381.95511,400.70631 376.1353,404.25472 375.12026,406.25118 C 371.10481,409.84992 366.1235,412.28352 361.1558,414.29017 C 357.54876,416.74187 352.58767,413.4106 353.87789,409.91272 C 353.87789,411.51505 353.8779,413.11739 353.8779,414.71973 z "
       id="path2782" />
    <path
       style="opacity:0.23888891;fill:#000000;fill-opacity:1;fill-rule:nonzero;stroke:none;stroke-width:1px;stroke-linecap:butt;stroke-linejoin:miter;stroke-opacity:1"
       d="M 250.11923,451.98923 C 255.05795,452.25088 259.74177,454.15561 264.62934,454.6107 C 266.78928,453.96222 265.65053,456.72288 265.97093,457.97314 C 266.90603,461.16445 262.78379,459.69214 260.8955,459.38103 C 257.33923,458.5685 253.79647,457.47684 250.11923,457.4235 C 250.11923,455.61208 250.11923,453.80065 250.11923,451.98923 z "
       id="path2784" />
    <path
       style="opacity:0.23888891;fill:#000000;fill-opacity:1;fill-rule:nonzero;stroke:none;stroke-width:1px;stroke-linecap:butt;stroke-linejoin:miter;stroke-opacity:1"
       d="M 281.11923,454.8624 C 285.34385,455.38027 289.81752,453.30113 291.92888,449.56144 C 294.33575,446.41057 297.71071,444.04952 299.66031,440.54391 C 301.08628,440.87639 303.43178,440.59734 304.27614,441.31662 C 302.74352,446.26271 298.33389,449.37221 295.1732,453.21659 C 293.18168,456.19877 289.99036,458.2295 286.53727,459.09135 C 284.77172,459.55209 282.94263,459.75581 281.11923,459.73514 C 281.11923,458.11089 281.11923,456.48664 281.11923,454.8624 z "
       id="path2786" />
    <path
       style="opacity:0.23888891;fill:#000000;fill-opacity:1;fill-rule:nonzero;stroke:none;stroke-width:1px;stroke-linecap:butt;stroke-linejoin:miter;stroke-opacity:1"
       id="path2788"
       d="M 272.11923,428.53019 C 275.39338,429.29945 275.8287,427.24836 277.68046,424.87426 L 283.13174,428.00485 C 280.38056,433.90435 277.53373,436.83846 272.11923,436.734 L 272.11923,428.53019 z " />
    <path
       style="opacity:0.23888891;fill:#000000;fill-opacity:1;fill-rule:nonzero;stroke:none;stroke-width:1px;stroke-linecap:butt;stroke-linejoin:miter;stroke-opacity:1"
       d="M 358.61923,338.98923 C 362.64244,336.88732 370.66607,341.52008 363.97599,343.90811 C 359.6892,344.4236 357.77287,343.40348 358.61923,338.98923 z "
       id="path2792" />
    <path
       style="opacity:0.23888891;fill:#000000;fill-opacity:1;fill-rule:nonzero;stroke:none;stroke-width:1px;stroke-linecap:butt;stroke-linejoin:miter;stroke-opacity:1"
       d="M 358.11923,359.48923 C 361.94822,359.59872 363.93015,363.55483 363.73856,366.97359 C 363.62622,370.84179 363.40651,374.71273 363.15713,378.5643 C 363.08009,383.19362 357.25795,380.6855 358.57766,377.11074 C 358.50223,372.06911 360.18122,366.78106 358.08088,361.9397 C 358.13098,361.12392 358.1306,360.30611 358.11923,359.48923 z "
       id="path2794" />
    <path
       style="opacity:0.23888891;fill:#000000;fill-opacity:1;fill-rule:nonzero;stroke:none;stroke-width:1px;stroke-linecap:butt;stroke-linejoin:miter;stroke-opacity:1;display:inline"
       d="M 326.41046,422.84781 C 332.78761,420.32382 336.86306,413.9889 338.71205,407.62107 C 338.31581,404.08303 337.99251,399.53569 334.04165,398.15008 C 331.41319,396.04656 337.31541,397.97623 337.55643,399.67261 C 339.05627,402.40073 339.85812,405.90538 339.20776,408.93725 C 337.05726,415.20639 332.85644,421.39731 326.41046,423.76423 C 326.41046,423.45876 326.41046,423.15328 326.41046,422.84781 z "
       id="path2796" />
    <path
       style="opacity:0.23888891;fill:#000000;fill-opacity:1;fill-rule:nonzero;stroke:none;stroke-width:1px;stroke-linecap:butt;stroke-linejoin:miter;stroke-opacity:1"
       id="path2800"
       d="M 498.61923,268.48922 C 502.28656,270.47594 506.29301,271.22311 510.42647,271.75589 C 512.54486,271.3938 513.74988,272.58728 515.44994,273.44712 L 512.32999,276.73183 C 511.61109,276.60287 510.89656,276.24722 510.17328,276.34495 C 506.50816,275.92654 500.03313,274.74242 498.61923,273.23514 L 498.61923,268.48922 z " />
    <path
       style="opacity:0.23888891;fill:#000000;fill-opacity:1;fill-rule:nonzero;stroke:none;stroke-width:1px;stroke-linecap:butt;stroke-linejoin:miter;stroke-opacity:1"
       d="M 496.61923,293.98923 C 504.66879,291.83689 497.14259,304.27652 496.61923,296.34593 C 496.61923,295.56036 496.61923,294.77479 496.61923,293.98923 z "
       id="path2802" />
    <path
       style="opacity:0.23888891;fill:#000000;fill-opacity:1;fill-rule:nonzero;stroke:none;stroke-width:1px;stroke-linecap:butt;stroke-linejoin:miter;stroke-opacity:1"
       d="M 365.11923,338.98923 C 371.04543,336.76095 375.72502,347.36692 368.06031,344.77367 C 365.06382,343.47406 364.72093,342.17822 365.11923,338.98923 z "
       id="path2806" />
    <path
       style="opacity:0.23888891;fill:#000000;fill-opacity:1;fill-rule:nonzero;stroke:none;stroke-width:1px;stroke-linecap:butt;stroke-linejoin:miter;stroke-opacity:1"
       d="M 278.38077,349.14975 C 275.68173,349.47972 272.70682,347.11616 273.27061,344.25099 C 273.8026,342.16174 273.70843,339.95834 273.96052,337.81751 C 274.17416,335.1248 274.3878,332.43209 274.60144,329.73938 C 276.31797,329.94205 278.57552,330.73668 278.49297,332.83629 C 278.29329,337.09873 278.41211,341.37669 278.38077,345.64719 C 278.38077,346.81471 278.38077,347.98224 278.38077,349.14975 z "
       id="path2808" />
    <path
       style="opacity:0.23888891;fill:#000000;fill-opacity:1;fill-rule:nonzero;stroke:none;stroke-width:1px;stroke-linecap:butt;stroke-linejoin:miter;stroke-opacity:1"
       d="M 275.62704,353.74295 C 274.18252,352.33732 274.45781,349.39741 276.54183,348.77626 C 278.26486,348.17005 279.90924,349.63253 280.03765,351.33488 C 280.48747,352.90052 278.98843,354.6317 277.37169,353.85688 C 276.8354,353.61401 276.19834,353.80248 275.62704,353.74295 z "
       id="path2810" />
    <path
       style="opacity:0.23888891;fill:#000000;fill-opacity:1;fill-rule:nonzero;stroke:none;stroke-width:1px;stroke-linecap:butt;stroke-linejoin:miter;stroke-opacity:1"
       d="M 289.11923,306.68137 C 291.50401,302.14557 301.37604,302.56467 296.43752,308.20854 C 293.27503,311.17647 287.14961,314.00414 289.11923,306.68137 z "
       id="path2814" />
    <path
       style="opacity:0.23888891;fill:#000000;fill-opacity:1;fill-rule:nonzero;stroke:none;stroke-width:1px;stroke-linecap:butt;stroke-linejoin:miter;stroke-opacity:1"
       d="M 275.88077,351.64307 C 274.05704,351.25551 273.26226,349.16685 274.0909,347.57362 C 274.81152,345.50205 276.45061,343.84664 276.96551,341.70242 C 277.13524,340.59931 275.47327,340.14674 275.91676,341.59365 C 275.7126,344.9411 275.99585,348.29397 275.88077,351.64307 z "
       id="path2816" />
  </g>
  <g
     inkscape:groupmode="layer"
     id="layer2"
     inkscape:label="Snake"
     sodipodi:insensitive="true"
     style="display:inline">
    <path
       style="font-size:12px;font-style:normal;font-weight:normal;line-height:100%;opacity:0.18333333;fill:#000000;fill-opacity:1;stroke:none;stroke-width:1px;stroke-linecap:butt;stroke-linejoin:miter;stroke-opacity:1;font-family:Bitstream Vera Sans"
       d="M 358.31033,421.53381 C 377.84134,421.37121 394.03599,417.87187 406.89432,411.03577 C 419.91487,404.03725 429.1922,395.24819 434.72635,384.66858 C 440.42266,373.9266 444.00338,357.56919 445.46854,335.59631 C 446.93307,313.46117 449.37447,297.83618 452.79276,288.72131 C 457.51248,276.67735 465.56912,266.91173 476.96268,259.42444 C 488.51831,251.77503 504.06192,247.70602 523.59354,247.21741 L 523.59354,256.25061 C 512.19993,257.2275 504.5502,260.72684 500.64432,266.74866 C 497.71427,271.1435 496.16805,282.37396 496.00565,300.44006 C 495.517,335.92208 492.09904,360.74302 485.75174,374.90295 C 477.61338,393.62059 463.45323,408.67591 443.27127,420.06897 C 423.25145,431.29959 394.93117,437.56586 358.31033,438.8678 L 358.31033,535.30334 C 358.31011,548.81249 361.32117,558.49673 367.34354,564.35608 C 373.36543,570.21547 383.53795,573.14515 397.86111,573.14514 L 406.65018,573.14514 L 406.65018,582.17834 L 262.85135,582.17834 L 262.85135,573.14514 L 271.39627,573.14514 C 285.71904,573.14515 295.89155,570.21547 301.91385,564.35608 C 307.93581,558.49673 310.94688,548.81249 310.94705,535.30334 L 310.94705,438.8678 C 280.18519,437.89138 255.77115,433.57823 237.70486,425.92834 C 219.80113,418.27877 205.39685,407.53659 194.49197,393.70178 C 187.1677,384.42464 181.95937,374.82178 178.86697,364.89319 C 176.75105,357.89471 175.12344,349.67532 173.98416,340.23499 L 172.51932,283.8385 C 171.86824,273.91042 169.5896,267.07449 165.68338,263.33069 C 161.7771,259.42476 154.61565,257.06474 144.19901,256.25061 L 144.19901,247.21741 C 164.38127,248.1943 179.84349,251.93779 190.58572,258.44788 C 201.49061,264.79585 209.38448,273.5849 214.26736,284.81506 C 219.15009,295.88306 222.24254,314.27497 223.54471,339.99084 C 224.68394,359.1968 228.02053,374.08936 233.55447,384.66858 C 239.08822,395.24819 248.36556,403.95587 261.38651,410.79163 C 274.56996,417.62773 291.09013,421.20845 310.94705,421.53381 L 310.94705,297.99866 C 310.94688,284.48984 307.93581,274.80561 301.91385,268.94592 C 295.89155,263.08687 285.71904,260.15718 271.39627,260.15686 L 262.85135,260.15686 L 262.85135,251.12366 L 406.65018,251.12366 L 406.65018,260.15686 L 397.86111,260.15686 C 383.53795,260.15718 373.36543,263.08687 367.34354,268.94592 C 361.32117,274.80561 358.31011,284.48984 358.31033,297.99866 L 358.31033,421.53381"
       id="text1583" />
  </g>
  <g
     inkscape:groupmode="layer"
     id="layer6"
     inkscape:label="Background">
    <path
       style="fill:#7ae64f;fill-opacity:1;fill-rule:nonzero;stroke:none;stroke-width:1px;stroke-linecap:butt;stroke-linejoin:miter;stroke-opacity:1"
       d="M 497.09607,297.87925 C 501.22512,299.94377 489.30557,301.94819 488.61079,302.12189 C 485.31342,302.94623 481.68749,302.82899 478.00418,302.82899 C 473.52584,302.82899 469.0475,302.82899 464.56916,302.82899 C 460.79792,302.82899 457.02668,302.82899 453.25545,302.82899 C 448.07,302.82899 442.88455,302.82899 437.6991,302.82899 C 432.68433,302.82899 426.78215,300.27653 422.84986,299.29346 C 418.79774,298.28043 415.16473,295.91796 410.82904,295.05082 C 404.35916,293.75684 401.50906,291.51529 394.56558,291.51529 C 390.32294,291.51529 386.0803,291.51529 381.83766,291.51529 C 377.40895,291.51529 371.75491,291.64625 368.40263,290.80818 C 364.15334,289.74586 359.06805,290.21406 354.9676,289.39397 C 351.32432,288.66531 346.67558,289.39397 342.94679,289.39397 C 338.93985,289.39397 334.93291,289.39397 330.92597,289.39397 C 325.22308,289.39397 324.30848,292.22239 319.61227,292.22239 C 313.66809,292.22239 311.22424,288.96747 306.88434,292.22239 C 305.94153,292.9295 304.99873,293.63661 304.05592,294.34371 C 301.57092,296.20746 297.97785,297.17214 294.86353,297.17214 C 289.61721,297.17214 284.89941,298.7156 282.84271,302.82899 C 280.37163,307.77115 281.76264,312.76732 279.30718,317.67824 C 277.31506,321.66247 277.18586,325.07698 277.18586,329.69905 C 277.18586,333.79843 276.21966,337.85507 277.18585,341.71987 C 278.40449,346.59442 275.41632,346.31429 278.60007,349.49804 C 280.59513,351.4931 283.60621,355.38046 284.25693,357.98332 C 284.90471,360.57444 292.66535,363.97452 294.15642,364.34728 C 295.80788,364.76015 298.33108,369.63359 302.6417,370.71125 C 305.49871,371.4255 310.05777,370.44822 311.83409,370.00414 C 313.89051,370.51824 310.41988,351.97408 310.41988,350.20515 C 310.41988,344.46016 313.23035,340.29668 309.00566,338.18433 C 308.37195,337.86748 307.21155,331.76768 306.88434,331.11327 C 306.73527,330.81512 306.41294,330.64186 306.17724,330.40616 C 303.01111,327.24003 307.31709,324.31655 309.00566,322.62798 C 311.50802,320.12562 315.36471,320.50666 318.90516,320.50666 C 322.9121,320.50666 326.91904,320.50666 330.92597,320.50666 C 335.58183,320.50666 340.84761,319.79956 345.77522,319.79956 C 349.04979,319.79956 355.01034,319.25854 355.67471,319.09245 C 359.49125,318.13831 365.10152,319.09245 369.10974,319.09245 C 373.35238,319.09245 377.59502,319.09245 381.83766,319.09245 C 386.85641,319.09245 393.18768,321.21377 399.51533,321.21377 C 403.99367,321.21377 408.47202,321.21377 412.95036,321.21377 C 417.93241,321.21377 423.28614,326.16352 428.50671,326.16352 C 434.06401,326.16352 440.07317,326.22671 445.47727,327.57773 C 450.86117,328.92371 453.14972,329.69905 459.61941,329.69905 C 465.76616,329.69905 471.30143,330.40615 477.29708,330.40615 C 483.18963,330.40615 489.08219,330.40615 494.97475,330.40615 C 500.06759,330.40615 505.19718,328.28484 510.5311,328.28484 C 514.83719,328.28484 518.04933,328.06125 520.43059,326.87062 C 523.38105,325.39539 525.17114,320.63636 526.08745,316.97113 C 527.04563,313.13841 526.79455,309.42327 526.79455,304.95031 C 526.79455,300.47197 526.79455,295.99363 526.79455,291.51529 C 526.79455,286.52414 525.75985,279.72532 521.84481,280.20158 C 517.84543,280.6881 514.99054,275.65958 513.35952,275.25183 C 509.27065,274.22961 506.64689,272.63651 502.04581,271.7163 C 497.09378,270.72589 496.85229,271.9843 495.68185,276.66604 C 494.85099,279.9895 495.68185,284.54195 495.68185,287.97975 C 495.68185,293.46039 498.34307,292.89121 497.09607,297.87925 z "
       id="path4847"
       sodipodi:nodetypes="cssssssssssssssssssssssssscssssssssssssssssssssssssssssc" />
    <path
       style="fill:#7ae64f;fill-opacity:1;fill-rule:evenodd;stroke:none;stroke-width:1px;stroke-linecap:butt;stroke-linejoin:miter;stroke-opacity:1"
       d="M 472.34733,261.8168 C 469.40987,260.00476 467.63318,253.56682 466.69048,249.79599 C 465.86607,246.49838 463.77914,244.80479 461.03362,243.43202 C 456.77224,241.30134 455.58635,240.6036 450.42702,240.6036 C 446.81956,240.6036 443.02854,241.39256 440.52752,242.01781 C 438.2046,242.59854 439.11331,248.89861 439.11331,251.2102 C 439.11331,254.98144 441.94174,258.75267 441.94174,262.52391 C 441.94174,266.03518 449.49351,267.36046 452.54834,268.88787 C 454.87125,270.04932 456.1256,272.79782 459.61941,274.54472 C 461.69573,275.58288 462.15096,271.16375 463.86205,269.59497 C 467.71831,266.05944 467.58307,265.31751 468.10469,263.23101 C 468.46624,261.78481 471.014,262.48347 472.34733,261.8168 z "
       id="path5740"
       sodipodi:nodetypes="cssssssssssc" />
    <path
       style="fill:#7ae64f;fill-opacity:1;fill-rule:evenodd;stroke:none;stroke-width:1px;stroke-linecap:butt;stroke-linejoin:miter;stroke-opacity:1"
       d="M 358.50314,340.30565 C 354.91551,342.99638 369.57495,341.01276 374.05949,341.01276 C 378.45547,341.01276 382.3719,345.97812 383.25188,349.49804 C 384.28159,353.61688 386.80037,358.76825 387.49451,362.93307 C 388.27154,367.59524 389.61584,371.40464 389.61584,376.3681 C 389.61584,380.31673 389.61583,384.88025 389.61583,389.09602 C 389.61583,392.47381 385.95013,396.6878 385.3732,398.99552 C 384.9509,400.6847 378.40128,403.84611 376.88791,405.35948 C 373.47016,408.77723 368.8041,409.85531 364.15999,411.01633 C 359.55699,412.16708 359.11732,417.3803 354.2605,417.3803 C 349.18093,417.3803 344.18898,419.19106 340.11836,420.20872 C 335.79826,421.28875 333.14891,420.53687 328.80465,421.62293 C 325.25874,422.50941 318.89663,421.63998 317.49094,424.45136 C 315.79993,427.83339 310.48764,426.57268 306.88434,426.57268 C 302.1703,426.57268 297.45625,426.57268 292.74221,426.57268 C 288.73527,426.57268 284.72833,426.57268 280.72139,426.57268 C 276.38083,426.57268 273.54557,425.97033 270.8219,428.694 C 268.63755,430.87835 268.14074,435.05796 272.23611,435.05796 C 275.48874,435.05796 280.33561,435.8454 282.84271,436.47218 C 286.93789,437.49597 292.58217,437.17928 297.69195,437.17928 C 302.88919,437.17928 304.5318,437.77078 307.59145,439.3006 C 308.30893,439.65934 307.59145,450.03077 307.59145,451.32142 C 307.59145,457.09685 307.42645,456.27117 302.6417,456.27117 C 299.65267,456.27117 298.53056,462.60225 295.57063,463.34224 C 291.5015,464.35952 285.73697,463.34223 281.4285,463.34223 C 275.53595,463.34223 268.93628,461.22091 263.04372,461.22091 C 257.54291,461.22091 254.23835,458.586 249.60869,456.27117 C 247.13209,455.03286 244.30467,449.90576 243.24473,447.78588 C 241.83352,444.96347 239.00209,441.2125 239.00209,437.17928 C 239.00209,434.36975 237.58788,430.79319 237.58788,427.27979 C 237.58788,423.22026 239.7092,420.78187 239.7092,416.67319 C 239.7092,412.39418 244.75966,411.52201 246.07316,408.89501 C 248.28317,404.47498 258.52462,403.94526 263.04372,403.94526 C 268.54158,403.94526 272.15015,401.82394 277.18586,401.82394 C 283.78552,401.82394 290.38518,401.82394 296.98485,401.82394 C 302.406,401.82394 307.12004,398.99551 312.54119,398.99551 C 317.96235,398.99551 322.6764,397.5813 328.09755,397.5813 C 332.97802,397.5813 341.41335,397.70053 344.361,394.75288 C 348.04052,391.07336 351.46018,389.52995 354.9676,384.85338 C 357.45745,381.53359 356.6235,378.00605 358.50314,374.24678 C 359.61742,372.01821 358.50314,366.19746 358.50314,363.64018 C 358.50314,359.30186 357.6771,355.74954 358.50313,351.61937 C 359.32037,347.53319 356.83959,344.46452 358.50314,340.30565 z "
       id="path5746"
       sodipodi:nodetypes="csssssssssssssssssssssssssssssssssssssssssc" />
    <path
       style="fill:#7ae64f;fill-opacity:1;fill-rule:evenodd;stroke:none;stroke-width:1px;stroke-linecap:butt;stroke-linejoin:miter;stroke-opacity:1"
       d="M 295.57063,399.70262 C 295.72109,395.88903 293.07692,393.67338 290.62089,391.21734 C 287.38531,387.98177 283.66014,384.90854 279.30718,382.73206 C 275.79011,380.97353 271.90696,379.64457 267.28636,378.48942 C 262.74026,377.35289 257.20534,376.15407 252.43712,374.24678 C 247.51202,372.27674 243.05136,372.12546 237.58788,372.12546 C 232.87383,372.12546 228.15979,374.95389 223.44574,374.95389 C 217.55319,374.95389 213.07484,374.95389 207.18228,374.95389 C 202.49995,374.95389 198.03412,377.03099 195.86858,379.19653 C 193.88829,381.17682 188.98031,379.45868 186.67619,380.61074 C 184.44762,381.72502 178.62687,384.85338 176.06959,384.85338 C 172.24427,384.85338 168.30106,380.61315 165.46299,379.90363 C 163.6136,379.44129 164.75588,375.1429 164.75588,382.73206 C 164.75588,386.74394 164.40273,389.80233 163.34167,391.92445 C 163.00117,392.60545 153.87915,391.92445 152.73506,391.92445 C 147.93045,391.92445 145.2957,390.56921 144.24978,394.75288 C 143.85649,396.32605 135.30028,395.45998 133.64318,395.45998 C 129.34514,395.45998 128.3238,398.65804 126.57211,400.40973 C 123.69747,403.28438 125.75602,406.92322 127.98633,407.4808 C 132.35308,408.57249 137.09524,406.77369 141.42136,406.77369 C 144.76551,406.77369 150.39636,406.06658 154.85639,406.06658 C 157.83781,406.06658 160.675,404.57149 163.34167,403.23816 C 166.47571,401.67114 157.83762,407.88229 156.2706,411.01633 C 155.41359,412.73036 147.10797,414.12165 144.95689,414.55187 C 141.37521,415.2682 137.13145,414.56368 134.35029,415.25897 C 132.93463,415.61289 132.22897,423.22645 132.22897,425.15847 C 132.22897,432.64119 136.74905,425.15847 143.54268,425.15847 C 151.90493,425.15847 151.03343,421.91037 155.5635,417.3803 C 159.21017,413.73362 168.78741,414.55187 173.94827,414.55187 C 180.95208,414.55187 187.58416,406.77369 195.16147,406.77369 C 203.44041,406.77369 211.12598,404.65237 219.91021,404.65237 C 228.78544,404.65237 235.74139,406.66376 242.53762,403.94527 C 249.80325,401.03902 259.30413,403.23816 267.28636,403.23816 C 271.98926,403.23816 276.40665,402.19552 280.72139,401.11684 C 285.46539,399.93084 290.73283,400.67018 295.57063,399.70262 z "
       id="path5748"
       sodipodi:nodetypes="csssssssssssssssssssssssssssssssssc" />
  </g>
  <g
     inkscape:groupmode="layer"
     id="layer5"
     inkscape:label="Final"
     style="display:inline">
    <path
       style="fill:#000000;fill-opacity:1;fill-rule:nonzero;stroke:none;stroke-width:1px;stroke-linecap:butt;stroke-linejoin:miter;stroke-opacity:1"
       id="path4650"
       d="M 457.41378,276.22266 C 454.29445,275.25538 451.26375,273.63355 448.5147,271.84513 C 444.77198,269.62467 442.28107,266.67403 440.46635,262.8316 C 438.51563,258.70245 437.7866,254.85785 438.00982,250.28219 L 441.18806,250.46427 C 440.98008,254.65394 441.70421,257.96207 443.54726,261.73253 C 445.16289,264.958 447.18762,267.4534 450.45309,269.27968 C 452.52561,270.4929 455.83107,272.22845 457.41378,272.86679 L 457.41378,276.22266 z " />
    <path
       style="fill:#000000;fill-opacity:1;fill-rule:nonzero;stroke:none;stroke-width:1px;stroke-linecap:butt;stroke-linejoin:miter;stroke-opacity:1"
       id="path4652"
       d="M 440.97091,245.46904 C 442.38474,240.63125 446.80484,240.08881 451.27297,240.13316 C 456.37919,240.17482 460.564,240.68918 464.48764,244.12283 C 467.23955,246.98605 467.39423,250.80389 468.79146,254.33977 C 469.08721,256.90272 470.03152,258.57437 471.59303,260.26051 L 470.17555,263.19917 C 467.3721,261.17218 466.31059,258.84494 465.71997,255.38224 C 464.49243,252.33009 464.34638,249.06057 462.30113,246.44952 C 458.93472,243.69258 455.43858,243.35584 451.09698,243.34458 C 448.44841,243.30127 445.94475,243.2687 444.32678,245.46904 L 440.97091,245.46904 z " />
    <path
       style="fill:#000000;fill-opacity:1;fill-rule:nonzero;stroke:none;stroke-width:1px;stroke-linecap:butt;stroke-linejoin:miter;stroke-opacity:1"
       id="path4692"
       d="M 503.72819,269.62376 C 502.54994,267.96045 505.93877,269.45312 506.87069,269.71678 C 510.24394,270.37329 513.43986,271.47373 516.50126,273.00104 C 520.57749,275.33147 523.25705,278.64424 525.07928,282.87811 C 526.54465,287.90894 526.9364,293.19418 527.3276,298.40208 C 527.66383,303.08383 527.69012,307.77842 527.70757,312.46966 C 528.07836,317.09563 527.53316,321.00751 525.11678,324.95947 C 521.52408,328.79039 516.38855,329.5418 511.42928,330.37388 C 504.44726,331.52896 497.36575,331.86604 490.30496,332.15831 C 475.55031,332.93889 460.81613,331.91069 446.12477,330.62804 C 436.12738,329.77464 426.1788,328.32226 416.36967,326.2112 C 407.68406,324.18442 399.16735,321.58653 390.34712,320.18108 C 381.15608,319.04217 371.86288,319.15318 362.61682,319.15826 C 354.97563,319.16058 347.37534,319.79654 339.7838,320.58258 C 334.08966,320.97264 328.46883,321.96664 322.83527,322.83416 C 318.63074,323.5539 314.39027,324.11288 310.59027,326.09167 L 308.84863,323.35928 C 313.08379,321.26872 317.62995,320.41075 322.3045,319.7067 C 328.00837,318.81866 333.70193,317.80209 339.47367,317.46102 C 347.17261,316.70166 354.87027,316.04252 362.61892,316.11472 C 372.01948,316.14643 381.46778,315.98197 390.81448,317.12455 C 399.68939,318.59697 408.28472,321.18777 417.04201,323.20229 C 426.71687,325.32587 436.53724,326.76698 446.39183,327.74344 C 460.94827,329.16808 475.54661,330.15039 490.17234,329.14175 C 497.11177,328.81865 504.06082,328.32701 510.92481,327.22696 C 514.9922,326.53217 519.42978,326.01188 522.51171,323.03748 C 524.45294,319.65859 524.81275,316.41202 524.4859,312.47551 C 524.47333,307.85814 524.45832,303.23695 524.15236,298.62763 C 523.76964,293.70469 523.42784,288.70078 522.03246,283.94588 C 520.54901,280.42462 518.24446,277.72536 514.87597,275.80034 C 512.01385,274.48753 509.08298,273.4202 505.95519,272.86322 C 503.58371,272.22774 501.21994,272.17116 500.36344,269.62376 L 503.72819,269.62376 z " />
    <path
       style="fill:#000000;fill-opacity:1;fill-rule:nonzero;stroke:none;stroke-width:1px;stroke-linecap:butt;stroke-linejoin:miter;stroke-opacity:1"
       id="path4694"
       d="M 496.36018,297.44031 C 499.0311,296.7953 498.03472,297.13126 497.81057,301.09529 C 496.78307,305.05472 493.41492,305.45772 489.88337,305.83464 C 488.93373,305.89325 487.98216,305.89086 487.03141,305.91042 L 486.99198,302.65355 C 487.88613,302.62875 488.78172,302.63997 489.67482,302.57915 C 491.67703,302.36748 493.54621,302.48855 494.56328,300.63365 C 494.66236,297.88835 493.94989,295.59911 496.36018,294.07555 L 496.36018,297.44031 z " />
    <path
       style="fill:#000000;fill-opacity:1;fill-rule:nonzero;stroke:none;stroke-width:1px;stroke-linecap:butt;stroke-linejoin:miter;stroke-opacity:1"
       id="path4702"
       d="M 478.89636,303.92328 C 474.14057,303.77632 469.38017,303.82514 464.62247,303.82116 C 453.03818,303.97406 441.48245,303.27023 430.04441,301.41235 C 420.41417,300.02714 411.33482,296.46124 402.02343,293.81181 C 395.53343,291.92509 388.80482,291.33704 382.08121,291.12069 C 375.86552,290.99373 369.64794,291.06644 363.4315,291.08549 C 357.77112,291.00382 352.12338,291.18828 346.48301,291.66113 C 344.69996,291.81694 342.91443,291.93907 341.12927,292.06634 L 340.9181,288.91756 C 342.68329,288.79277 344.44916,288.67579 346.21132,288.51172 C 351.9378,288.02553 357.67595,287.80405 363.42393,287.91464 C 369.67141,287.90263 375.91955,287.87477 382.16661,287.95355 C 389.14632,288.17411 396.12217,288.88721 402.85436,290.83968 C 412.0607,293.46694 421.01623,297.05006 430.52539,298.50775 C 441.79699,300.41058 453.1994,301.07231 464.62247,300.66526 C 469.38017,300.66128 474.14057,300.71009 478.89636,300.56313 L 478.89636,303.92328 z " />
    <path
       style="fill:#000000;fill-opacity:1;fill-rule:nonzero;stroke:none;stroke-width:1px;stroke-linecap:butt;stroke-linejoin:miter;stroke-opacity:1"
       id="path4706"
       d="M 334.19334,289.36518 C 335.45863,292.29558 329.72802,291.78404 326.13291,292.51532 C 319.81439,293.4386 313.49988,294.4113 307.17524,295.30309 C 300.93706,295.91981 295.26739,298.13788 289.95673,301.37543 C 285.34204,304.17948 282.7319,308.01079 281.41349,313.10844 C 280.57442,316.93433 280.14147,320.83777 279.78905,324.73432 C 279.52553,329.95441 278.82944,335.13994 279.19781,340.36572 C 280.31268,347.44341 283.02161,354.22624 287.45238,359.86133 C 291.92199,364.79175 298.22698,366.82297 304.57532,367.99255 C 308.02362,368.27404 311.49717,368.01253 314.90194,367.51332 L 315.67318,370.67927 C 311.86908,371.30112 307.97445,371.53532 304.12446,371.16131 C 297.02454,369.898 290.02962,367.29118 285.04962,361.86832 C 280.25614,355.72821 277.30434,348.36815 276.0774,340.67607 C 275.68395,335.26878 276.26394,329.89457 276.57922,324.49249 C 276.93113,320.44911 277.3619,316.39283 278.25939,312.42936 C 279.84322,306.50627 282.90214,301.99344 288.28888,298.7569 C 293.96108,295.27822 300.04068,292.79945 306.7256,292.16775 C 313.00336,291.33657 319.25777,290.33127 325.52031,289.40083 C 329.47083,288.60471 334.92564,285.86328 337.5581,289.36518 L 334.19334,289.36518 z " />
    <path
       style="fill:#000000;fill-opacity:1;fill-rule:nonzero;stroke:none;stroke-width:1px;stroke-linecap:butt;stroke-linejoin:miter;stroke-opacity:1"
       id="path4708"
       d="M 308.26977,327.13879 C 309.49296,325.96619 308.2792,328.84659 308.08194,329.76754 C 307.63879,331.23719 308.19646,332.511 308.49539,333.85844 L 305.6252,335.4618 C 304.86842,333.43293 304.40473,331.52982 304.83645,329.32186 C 305.32086,326.84197 305.67679,324.65389 308.26977,323.77403 L 308.26977,327.13879 z " />
    <path
       style="fill:#000000;fill-opacity:1;fill-rule:nonzero;stroke:none;stroke-width:1px;stroke-linecap:butt;stroke-linejoin:miter;stroke-opacity:1"
       id="path4712"
       d="M 360.89262,369.32582 C 360.82455,371.72982 360.84026,374.13586 360.83267,376.54072 C 360.6889,381.59333 358.45217,385.77869 355.16073,389.48192 C 350.67718,393.75649 344.30636,394.95314 338.55615,396.77273 C 337.27334,397.18502 335.96389,397.502 334.66292,397.84857 L 333.89279,394.773 C 335.14345,394.453 336.40248,394.16315 337.63507,393.7754 C 342.85175,392.14828 348.62619,390.9833 352.81011,387.31712 C 355.52422,384.16231 357.46308,380.81787 357.58782,376.54072 C 357.58023,374.13586 357.59594,371.72982 357.52787,369.32582 L 360.89262,369.32582 z " />
    <path
       style="fill:#000000;fill-opacity:1;fill-rule:nonzero;stroke:none;stroke-width:1px;stroke-linecap:butt;stroke-linejoin:miter;stroke-opacity:1"
       id="path4716"
       d="M 359.23903,338.62327 C 365.22624,339.24663 371.26849,340.03559 377.09807,341.55935 C 383.75488,343.63362 387.21206,348.68487 389.23551,355.03463 C 390.63159,360.84059 391.41225,366.77296 392.01185,372.70759 C 392.74964,379.44615 392.82604,386.09441 390.13307,392.38777 C 386.54989,399.3743 381.02158,404.99139 374.93664,409.83855 C 368.28626,414.58211 360.462,417.27823 352.80867,419.9467 C 346.816,421.90493 340.57184,422.98946 334.39612,424.22166 C 328.29972,425.56578 322.16395,426.6431 315.9402,427.147 C 310.64728,427.50395 305.33995,427.50158 300.03781,427.47569 C 294.53116,427.43569 289.02435,427.46857 283.51764,427.47253 C 280.0229,427.21205 276.80393,427.93994 273.58189,429.16759 C 272.13864,429.70952 271.16457,430.86244 270.09114,431.87009 L 267.47608,429.88891 C 268.93083,428.43229 270.30826,426.93471 272.29981,426.1617 C 275.93964,424.8018 279.58312,423.95474 283.51921,424.26125 C 289.02642,424.27186 294.53361,424.31914 300.04083,424.29556 C 305.26516,424.27693 310.49499,424.32145 315.71181,423.99377 C 321.81461,423.505 327.83117,422.47436 333.79462,421.08742 C 339.8423,419.90954 345.95569,418.87974 351.83004,416.99769 C 359.1795,414.5004 366.67829,411.87997 373.04361,407.33826 C 378.77243,402.85497 383.94766,397.59032 387.2933,391.05775 C 389.76338,385.29533 389.51378,379.16644 388.86058,373.01249 C 388.26964,367.27561 387.55294,361.53254 386.17933,355.92292 C 384.51056,350.59521 381.77706,346.34465 376.19663,344.56528 C 370.69445,343.09658 364.92299,342.20115 359.23903,341.98803 L 359.23903,338.62327 z " />
    <path
       style="fill:#000000;fill-opacity:1;fill-rule:nonzero;stroke:none;stroke-width:1px;stroke-linecap:butt;stroke-linejoin:miter;stroke-opacity:1"
       id="path4722"
       d="M 323.70806,398.01698 C 324.69029,400.84418 321.6283,399.50021 318.13739,399.99051 C 313.9146,400.70547 309.7427,401.6731 305.54015,402.4871 C 301.15437,403.01308 296.76264,403.37828 292.38502,404.00353 C 286.55119,404.81093 280.67715,405.29525 274.81975,405.90772 L 274.5072,402.78572 C 280.31783,402.20706 286.13584,401.65068 291.92056,400.85294 C 296.26326,400.19866 300.62256,399.80429 304.98066,399.30123 C 309.18786,398.49691 313.3652,397.54021 317.5904,396.82301 C 321.02896,396.3042 324.97119,395.10702 327.07282,398.01698 L 323.70806,398.01698 z " />
    <path
       style="fill:#000000;fill-opacity:1;fill-rule:nonzero;stroke:none;stroke-width:1px;stroke-linecap:butt;stroke-linejoin:miter;stroke-opacity:1"
       id="path4728"
       d="M 267.25758,404.92054 C 264.65893,404.6832 262.18959,405.50316 259.71839,406.19651 C 254.295,407.25122 249.82193,410.08147 245.71194,413.64577 C 242.30182,416.8411 241.69369,420.94373 241.34095,425.37307 C 241.28251,430.20357 240.95541,435.08031 241.64281,439.87285 C 244.1954,449.22303 252.49411,454.1841 260.69001,458.17847 C 271.89902,463.27727 284.81417,466.1928 296.45527,460.93489 C 302.33109,458.06331 305.59665,453.52684 306.69344,447.25192 C 306.85116,445.97724 306.83017,444.69293 306.85351,443.41208 L 310.09999,443.42573 C 310.06648,444.84452 310.08289,446.26758 309.89107,447.67795 C 308.51927,454.95463 304.63374,460.51954 297.67386,463.68516 C 285.15868,469.13417 271.45606,466.30229 259.42248,460.78806 C 250.27219,456.35805 241.30448,450.86845 238.52782,440.43677 C 237.77189,435.39863 238.03448,430.27653 238.1417,425.1923 C 238.49044,419.93834 239.49546,414.98616 243.57729,411.28018 C 248.06391,407.42872 252.96503,404.30997 258.85164,403.12858 C 261.60684,402.34136 264.35704,401.43312 267.25758,401.55578 L 267.25758,404.92054 z " />
    <path
       style="fill:#000000;fill-opacity:1;fill-rule:nonzero;stroke:none;stroke-width:1px;stroke-linecap:butt;stroke-linejoin:miter;stroke-opacity:1"
       id="path4732"
       d="M 292.47404,396.13831 C 291.97343,395.2081 288.68293,391.46905 287.00748,389.80984 C 281.17008,384.65049 273.6166,382.39465 266.36001,380.00228 C 257.99253,377.09067 249.20284,376.69835 240.43786,376.482 C 229.27053,376.16321 218.10845,376.58034 207.10763,378.57497 C 198.94221,379.98591 191.19467,382.95676 183.20886,385.06306 C 182.7488,385.18997 182.28875,385.31688 181.82869,385.44379 L 181.00479,382.41464 C 181.47014,382.28986 181.93548,382.16507 182.40083,382.04028 C 190.47609,379.96584 198.29526,376.96266 206.54901,375.58665 C 217.76158,373.63147 229.12736,373.27018 240.49579,373.44664 C 249.56361,373.64501 258.65498,374.01952 267.28975,377.11604 C 274.97119,379.6023 282.97618,382.03346 289.16848,387.44581 C 291.80513,389.95454 294.60525,392.68041 295.8388,396.13831 L 292.47404,396.13831 z " />
    <path
       style="fill:#000000;fill-opacity:1;fill-rule:nonzero;stroke:none;stroke-width:1px;stroke-linecap:butt;stroke-linejoin:miter;stroke-opacity:1"
       id="path4738"
       d="M 247.45859,405.62764 C 245.15626,405.56098 242.85225,405.57292 240.54914,405.57014 C 236.23191,405.41224 231.94509,405.69959 227.65088,406.10123 C 220.21945,406.5366 212.8024,407.07858 205.38713,407.73709 C 199.63368,408.26419 194.02097,409.64936 188.38139,410.83657 C 184.47517,411.437 180.65949,412.41985 176.86583,413.50684 C 173.5855,414.39943 170.27973,415.1451 167.03064,416.14594 C 164.05086,417.05071 161.44496,418.77872 158.81513,420.39386 L 157.16574,417.58629 C 159.99327,415.87461 162.80076,414.05848 165.98351,413.07172 C 169.27682,412.0093 172.65307,411.30267 175.98598,410.37781 C 179.85728,409.28173 183.7566,408.30264 187.73668,407.68122 C 193.49281,406.49418 199.2345,405.17134 205.10087,404.64608 C 212.51368,404.00809 219.92641,403.43141 227.35014,402.95141 C 231.74127,402.48898 236.12893,402.16849 240.54914,402.32038 C 242.85225,402.31761 245.15626,402.32955 247.45859,402.26288 L 247.45859,405.62764 z " />
    <path
       style="fill:#000000;fill-opacity:1;fill-rule:nonzero;stroke:none;stroke-width:1px;stroke-linecap:butt;stroke-linejoin:miter;stroke-opacity:1"
       id="path4740"
       d="M 162.72932,372.5644 C 160.15531,374.46333 161.54141,376.41796 162.0735,379.28002 C 162.56769,382.59917 162.65765,385.86541 161.95313,389.11196 C 160.28453,391.53319 158.47394,390.77893 156.07349,389.91111 C 153.58249,387.79721 153.39313,384.77729 153.12528,381.69542 C 152.61749,378.63118 153.14675,377.11835 155.02935,375.17254 C 156.25728,374.51329 157.38674,374.85899 158.63715,374.97055 L 159.59983,371.838 C 157.51122,371.48755 155.60813,371.25932 153.59872,372.2253 C 150.0054,374.60031 149.43332,377.69868 149.89458,381.9062 C 150.26407,386.08992 150.79291,390.14882 154.46862,392.75215 C 158.60011,394.59403 162.6319,394.69624 165.00115,390.24116 C 165.93978,386.46748 165.85757,382.67783 165.29911,378.8128 C 164.82862,376.13496 165.27964,372.83318 162.72932,375.92916 L 162.72932,372.5644 z " />
    <path
       style="fill:#000000;fill-opacity:1;fill-rule:nonzero;stroke:none;stroke-width:1px;stroke-linecap:butt;stroke-linejoin:miter;stroke-opacity:1"
       id="path4742"
       d="M 151.88334,388.4177 C 152.46563,389.67476 150.80458,389.41516 150.31302,389.86968 C 146.96314,390.66535 143.97718,390.92064 141.02491,389.43128 C 139.37165,386.05298 139.57729,382.14247 139.58238,378.45836 C 139.37994,377.46849 140.11478,376.70768 140.36738,375.87707 L 137.59785,374.13898 C 137.01337,375.52307 136.24936,376.76971 136.35323,378.36778 C 136.37301,382.91421 136.13428,387.7336 138.67393,391.68816 C 142.55032,394.34779 146.54667,393.9994 151.10921,393.05423 C 153.52666,392.11134 155.23359,391.32598 155.2481,388.4177 L 151.88334,388.4177 z " />
    <path
       style="fill:#000000;fill-opacity:1;fill-rule:nonzero;stroke:none;stroke-width:1px;stroke-linecap:butt;stroke-linejoin:miter;stroke-opacity:1"
       id="path4744"
       d="M 158.07653,381.99617 C 157.96248,382.73972 157.04446,383.55989 157.02338,383.59182 L 158.38226,380.56014 C 156.43553,380.30881 155.65968,379.79376 154.71177,381.99617 L 158.07653,381.99617 z " />
    <path
       style="fill:#000000;fill-opacity:1;fill-rule:nonzero;stroke:none;stroke-width:1px;stroke-linecap:butt;stroke-linejoin:miter;stroke-opacity:1"
       id="path4746"
       d="M 142.9879,383.00022 C 143.37615,382.88014 143.76168,383.0731 144.11983,383.10683 L 145.2765,380.00783 C 144.52361,379.8824 143.78338,379.52913 142.9879,379.63546 L 142.9879,383.00022 z " />
    <path
       style="fill:#000000;fill-opacity:1;fill-rule:nonzero;stroke:none;stroke-width:1px;stroke-linecap:butt;stroke-linejoin:miter;stroke-opacity:1"
       id="path4798"
       d="M 138.62171,406.47137 C 142.47941,406.66505 146.27726,406.48496 150.08391,405.85399 C 154.18013,405.01447 158.04392,403.41422 161.80719,401.6384 L 162.64515,403.33253 C 158.71612,405.15072 154.69474,406.80959 150.43369,407.68457 C 146.51046,408.36016 142.6021,408.57506 138.62171,408.49023 L 138.62171,406.47137 z " />
    <path
       style="fill:#000000;fill-opacity:1;fill-rule:nonzero;stroke:none;stroke-width:1px;stroke-linecap:butt;stroke-linejoin:miter;stroke-opacity:1"
       id="path4800"
       d="M 141.45014,414.24955 C 146.95639,413.50481 151.81712,410.20002 156.08555,406.80048 C 156.20253,406.85717 158.24871,404.63146 158.32064,404.55934 L 159.67698,405.84562 C 159.61308,405.90884 157.39046,408.28615 157.28017,408.21689 C 152.62559,411.90598 147.41493,415.3413 141.45014,416.2684 L 141.45014,414.24955 z " />
    <path
       style="fill:#000000;fill-opacity:1;fill-rule:nonzero;stroke:none;stroke-width:1px;stroke-linecap:butt;stroke-linejoin:miter;stroke-opacity:1"
       id="path4818"
       d="M 177.45502,385.82865 C 175.23194,385.90916 173.09494,385.67527 170.93584,385.1791 C 167.68114,383.89497 166.16526,381.15304 164.72301,378.17389 C 163.96181,375.64678 162.52081,373.76882 160.69321,371.94988 C 160.36073,371.59643 159.87744,371.47899 159.47484,371.24659 L 160.83367,368.28042 C 161.49893,368.67828 162.29454,368.89716 162.84644,369.48418 C 165.00313,371.64283 166.80914,373.8669 167.71931,376.85539 C 168.72971,378.95211 169.66936,380.95426 171.85157,382.04067 C 173.71172,382.43539 175.53986,382.64843 177.45502,382.4639 L 177.45502,385.82865 z " />
    <path
       style="fill:#000000;fill-opacity:1;fill-rule:nonzero;stroke:none;stroke-width:1px;stroke-linecap:butt;stroke-linejoin:miter;stroke-opacity:1"
       id="path4820"
       d="M 142.80679,396.43526 C 140.92992,396.28636 139.076,396.58405 137.22222,396.8231 C 134.53869,397.3381 132.0893,398.43776 129.75521,399.80151 C 127.45368,401.2791 126.84847,403.13941 126.37824,405.64304 C 127.95886,407.38466 130.97874,407.37428 133.30541,407.66147 C 133.30575,407.74051 134.9082,407.69016 134.94147,407.69075 L 134.98008,410.91547 C 134.31167,410.89849 133.64104,410.96822 132.97485,410.86452 C 128.91828,410.36643 124.11513,410.29068 123.10126,405.59856 C 123.55417,401.99604 124.79996,399.15726 127.95015,397.0813 C 130.65252,395.42106 133.55824,394.21675 136.68845,393.60132 C 138.7202,393.3279 140.74887,393.02157 142.80679,393.0705 L 142.80679,396.43526 z " />
    <path
       style="fill:#000000;fill-opacity:1;fill-rule:nonzero;stroke:none;stroke-width:1px;stroke-linecap:butt;stroke-linejoin:miter;stroke-opacity:1"
       id="path4830"
       d="M 141.68952,414.58065 C 140.35538,417.08079 137.78784,416.71565 135.12167,417.10964 C 132.54364,417.6312 131.6907,419.01332 130.76642,421.25628 C 130.00095,424.51738 130.99816,424.7834 133.94519,425.65764 C 137.47833,426.55364 140.32953,425.46609 143.40794,423.87137 C 146.45294,422.29499 149.4605,420.65967 152.34641,418.80895 C 152.92023,418.47097 153.49468,418.13426 154.06884,417.7969 L 155.7013,420.62896 C 155.16448,420.94119 154.62809,421.25404 154.09088,421.56562 C 151.12315,423.44587 148.04003,425.11817 144.92644,426.74736 C 141.14208,428.70616 137.49716,429.87217 133.19218,428.79504 C 128.68826,427.43322 126.25481,425.40023 127.60519,420.41014 C 128.80808,416.95167 130.76359,414.61357 134.53924,413.89186 C 137.2985,413.46084 138.91263,412.12747 138.32476,414.58065 L 141.68952,414.58065 z " />
    <path
       style="fill:#e83724;fill-opacity:1;fill-rule:nonzero;stroke:none;stroke-width:1px;stroke-linecap:butt;stroke-linejoin:miter;stroke-opacity:1"
       id="path4838"
       d="M 144.92811,412.69871 C 141.30762,412.82316 137.70435,413.53671 134.20586,414.45509 C 126.00955,416.97354 119.60334,422.46228 114.12759,428.85157 C 109.75811,434.2211 106.68038,440.391 104.93571,447.06953 C 104.86869,447.38883 104.80167,447.70813 104.73465,448.02743 L 101.60258,447.34959 C 101.68079,446.99781 101.75901,446.64603 101.83722,446.29426 C 103.78485,439.19282 107.06525,432.59058 111.78073,426.89859 C 117.67156,420.07466 124.57976,414.16757 133.34009,411.43151 C 137.13134,410.4033 141.00984,409.65419 144.92811,409.33395 L 144.92811,412.69871 z " />
    <path
       style="fill:#e83724;fill-opacity:1;fill-rule:nonzero;stroke:none;stroke-width:1px;stroke-linecap:butt;stroke-linejoin:miter;stroke-opacity:1"
       id="path4842"
       d="M 96.420573,440.20419 C 96.413294,439.37009 98.435494,435.92546 99.363525,434.40084 C 101.09946,431.1382 103.81626,428.87883 106.78735,426.80527 C 108.76463,425.74336 110.79479,424.77817 112.79937,423.76607 L 114.20396,426.67566 C 112.31423,427.63488 110.41045,428.56811 108.52864,429.54027 C 105.94841,431.34299 103.60938,433.31039 102.11437,436.15126 C 100.87479,438.24418 99.799924,440.3896 98.798467,442.58209 L 96.420573,440.20419 z " />
  </g>
</svg>
